<svg width="536" height="357" viewBox="0 0 536 357" fill="none" xmlns="http://www.w3.org/2000/svg">
<g clip-path="url(#clip0_544_1019)">
<path d="M207.23 32.2527H142.201C139.97 32.2527 138.155 30.4358 138.155 28.2027C138.155 25.9695 139.97 24.1526 142.201 24.1526H207.23C209.461 24.1526 211.276 25.9695 211.276 28.2027C211.276 30.4358 209.461 32.2527 207.23 32.2527Z" fill="#BDBDBD"/>
<path d="M257.98 45.9605H142.201C139.97 45.9605 138.155 44.1436 138.155 41.9105C138.155 39.6773 139.97 37.8604 142.201 37.8604H257.98C260.21 37.8604 262.026 39.6773 262.026 41.9105C262.026 44.1436 260.21 45.9605 257.98 45.9605Z" fill="#BDBDBD"/>
<path d="M257.98 59.545H142.201C139.97 59.545 138.155 57.728 138.155 55.4949C138.155 53.2618 139.97 51.4449 142.201 51.4449H257.98C260.21 51.4449 262.026 53.2618 262.026 55.4949C262.026 57.728 260.21 59.545 257.98 59.545Z" fill="#BDBDBD"/>
<path d="M270.244 130.041V128.1C247.866 128.1 228.324 109.802 223.128 84.3137L231.56 86.485C227.482 82.6174 223.362 76.1428 220.806 70.8513C219.297 76.5319 216.477 83.6708 213.205 88.2418L221.183 84.4589C226.487 110.976 246.869 130.041 270.244 130.041Z" fill="#3F3D56"/>
<path d="M261.779 55.7738C261.779 57.9139 260.039 59.6551 257.901 59.6551H207.494C205.356 59.6551 203.617 57.9139 203.617 55.7738C203.617 53.6337 205.356 51.8926 207.494 51.8926H257.901C260.039 51.8926 261.779 53.6337 261.779 55.7738Z" fill="#50C878"/>
<path d="M34.8038 271.978C34.0365 269.303 32.7225 267.022 31.158 265.394L25.474 239.458L13.0844 242.496L20.1842 268.479C19.7173 270.677 19.8108 273.302 20.5781 275.976C22.3311 282.087 26.9367 286.145 30.8651 285.04C34.7934 283.936 36.5568 278.088 34.8038 271.978Z" fill="#FFB6B6"/>
<path d="M33.0898 101.841C33.0898 101.841 19.7078 101.379 11.9529 110.112C3.06819 120.976 -3.00494 163.544 1.55418 166.411L13.9064 254.21L31.5206 251.788L26.9999 146.441L33.0898 101.841Z" fill="#276955"/>
<path d="M123.43 249.837L120.223 356.997H74.1788L72.3176 315.69L64.1362 356.997H14.786L20.9414 285.989L27.3004 271.056L31.6044 260.935L123.43 249.837Z" fill="#2F2E41"/>
<path d="M86.858 84.3374L54.8691 82.3968L44.2061 95.9812C34.9969 97.955 26.6789 100.503 20.9414 104.714C22.3141 145.396 19.2987 198.293 31.6044 208.538L20.6772 285.739C20.6772 285.739 25.0839 281.96 32.4449 283.294C34.988 283.755 38.0579 289.49 41.1827 289.837C65.1935 292.507 104.131 289.761 123.43 249.838L115.939 192.043L117.878 107.625C111.817 102.829 104.282 99.7128 95.5823 97.9219L86.858 84.3374Z" fill="#276955"/>
<path d="M148.442 60.721C148.789 64.085 148.348 67.2487 147.333 69.7852L152.662 101.623L137.453 103.718L133.685 71.196C132.174 68.9207 131.096 65.914 130.749 62.55C129.956 54.8648 133.274 48.2254 138.16 47.7203C143.046 47.2153 147.649 53.0358 148.442 60.721Z" fill="#FFB6B6"/>
<path d="M97.877 110.057C96.2846 112.409 96.7282 115.053 96.348 118.229C94.734 131.713 120.548 171.558 138.409 176.145C140.753 176.747 142.088 179.278 144.454 179.787C151.462 181.295 157.987 175.727 157.608 168.562L152.757 76.6648L132.374 83.6239L133.678 131.335C133.548 121.451 124.481 111.387 117.613 107.201C117.613 107.201 103.702 101.454 97.877 110.057Z" fill="#276955"/>
<path d="M74.1833 79.8857C89.7451 79.8857 102.36 67.2579 102.36 51.6808C102.36 36.1036 89.7451 23.4758 74.1833 23.4758C58.6214 23.4758 46.0061 36.1036 46.0061 51.6808C46.0061 67.2579 58.6214 79.8857 74.1833 79.8857Z" fill="#FFB6B6"/>
<path d="M100.429 30.9699C100.187 31.0281 104.138 27.1729 104.307 27.0886C108.184 25.148 104.2 44.1177 101.399 43.584C94.5063 42.274 91.5304 39.6736 88.855 46.165C88.1086 47.9698 87.6433 50.0075 86.1892 51.298C84.1924 53.0543 80.8772 52.9087 79.2486 55.0046C77.94 56.693 78.318 59.177 79.2874 61.0788C80.2568 62.9904 81.7302 64.6108 82.6123 66.5611C83.6011 68.7541 79.3843 75.7306 77.7752 79.6507V79.6604L77.7656 79.6834C77.338 80.7116 76.322 77.7496 75.2492 77.4539C73.9656 77.1001 72.0745 80.1342 70.03 79.5828C70.0203 79.5828 70.0106 79.5731 70.0009 79.5731C68.0524 79.0297 65.8811 78.4475 63.7291 77.8653H63.7194C57.6609 76.2158 56.1293 78.5834 55.8385 78.5155L52.0774 74.576C50.7866 73.6352 50.9325 70.5982 50.0223 69.7826C49.278 69.1155 47.4223 70.6569 46.8754 70.0158C44.1938 66.8719 43.5768 63.7269 41.996 57.5178C40.5516 51.8414 37.5563 34.8511 43.7118 34.0846C49.5182 33.3568 45.2724 25.2644 51.1177 25.5652C50.7687 24.0903 51.4182 22.5087 52.4748 21.4219C53.5217 20.3255 54.9176 19.6462 56.3232 19.064C63.2541 16.2307 62.1006 13.7953 69.4096 15.4448C70.1366 14.426 79.4593 11.7699 80.7777 12.1095C80.8746 12.1289 78.7445 16.2696 83.95 15.4448C83.7561 16.6383 86.5939 14.0502 86.8581 18.3557C92.41 15.0205 95.3982 23.0035 95.5823 24.1776C95.8247 25.6428 93.6145 24.8957 95.088 25.1188C95.9604 25.2547 97.4532 27.0304 97.3078 27.9133C97.9379 27.0595 98.568 26.2153 99.2077 25.3614C99.3241 25.3711 99.4307 25.3905 99.5471 25.4099C102.494 25.9727 99.1155 35.6157 99.2369 32.6097C99.4598 27.0886 103.366 30.3198 100.429 30.9699Z" fill="#2F2E41"/>
<path d="M459.836 25.1873C458.795 33.7526 457.658 42.3061 456.424 50.8458C455.923 54.3142 455.393 57.8267 453.999 61.0414C453.048 63.2358 451.715 65.2396 450.389 67.23C448.823 69.5821 447.231 71.9642 445.104 73.8235C442.976 75.6828 440.213 76.9884 437.398 76.7698C444.868 71.7362 449.889 63.2227 450.682 54.2437C451.055 50.023 450.543 45.7804 450.445 41.5444C450.347 37.3084 450.701 32.925 452.654 29.1655C454.606 25.4061 458.463 22.3967 462.694 22.5036L459.836 25.1873Z" fill="#2F2E41"/>
<path d="M384.127 207.872C378.049 212.807 370.578 213.668 367.441 209.796C364.304 205.925 366.688 198.785 372.766 193.851C375.427 191.691 378.354 190.311 381.068 189.767L407.086 169.18L416.478 181.608L389.832 200.583C388.741 203.129 386.788 205.712 384.127 207.872Z" fill="#FFB6B6"/>
<path d="M389.042 179.924L427.809 143.102L431.687 140.192C431.687 140.192 453.941 118.489 459.704 117.992C462.144 117.782 464.585 118.391 466.641 119.728C469.963 121.884 471.683 125.433 471.683 129.01C471.683 132 470.481 135.003 468.019 137.215L432.527 169.109L417.428 182.675L398.651 199.553L396.741 195.661L390.286 182.472L389.042 179.924Z" fill="#800020"/>
<path d="M471.937 155.005L433.12 166.905C439.619 168.738 442.34 208.376 436.292 209.608C436.292 209.608 500.624 214.188 497.113 209.608C492.834 204.024 498.573 166.922 501.309 166.905L471.937 155.005Z" fill="#FFB6B6"/>
<path d="M523.588 357L520.195 316.014C520.195 301.352 519.245 288.107 517.723 276.299C511.626 228.899 496.339 204.602 496.339 204.602H439.147C439.069 204.689 438.992 204.757 438.914 204.844L438.904 204.854C425.411 219.05 418.393 254.748 415.271 276.299C413.788 286.555 413.187 293.609 413.187 293.609L407.594 343.367L411.636 357H444.914L444.391 354.079L465.804 276.299L466.066 275.348L466.299 276.299L486.151 357L523.588 357Z" fill="#2F2E41"/>
<path d="M440.319 131.361L452.404 106.941L462.587 89.1994L470.822 80.799H493.358L495.456 89.1994L508.045 96.1998L512.497 131.202L496.634 207.143C477.752 191.743 438.833 187.477 438.833 187.477L432.527 169.109L428.359 146.98L427.855 144.334L440.319 131.361Z" fill="#800020"/>
<path d="M438.869 175.536C431.046 175.314 424.818 171.094 424.959 166.11C425.101 161.127 431.557 157.268 439.38 157.49C442.805 157.587 445.923 158.45 448.336 159.808L481.473 161.166L480.505 176.718L447.941 173.729C445.456 174.948 442.293 175.633 438.869 175.536Z" fill="#FFB6B6"/>
<path d="M481.246 122.452L512.505 153.516L458.057 159.097L445.404 176.912L521.294 179.431C528.141 181.872 535.435 177.135 535.998 169.882C536.189 167.433 520.598 105.286 511.159 99.5161C500.097 92.754 481.246 122.452 481.246 122.452Z" fill="#800020"/>
<path d="M502.959 50.3184C503.187 36.2086 491.944 24.5859 477.848 24.3584C463.752 24.1309 452.141 35.3847 451.914 49.4945C451.686 63.6042 462.929 75.2269 477.025 75.4544C491.121 75.6819 502.732 64.4281 502.959 50.3184Z" fill="#FFB6B6"/>
<path d="M533.47 129.518C532.83 131.944 527.848 133.196 526.684 136.31C522.981 138.426 524.988 121.144 523.495 120.009C522.342 119.145 522.031 121.231 521.77 119.436C520.781 112.702 514.315 114.206 509.527 113.12C508.984 112.062 508.567 111.033 508.296 110.034C507.811 108.229 505.601 107.599 504.292 108.928C503.701 108.404 503.274 106.551 502.857 104.697C502.557 103.349 502.256 102 501.907 101.146L498.573 93.6162L499.649 99.2247C497.468 98.4387 495.267 99.2538 493.997 96.5563C492.369 93.0922 491.719 89.0363 492.902 85.3976C493.978 82.0986 495.791 75.4907 497.836 70.0181C495.519 71.6967 492.737 72.9193 489.509 73.5307C490.653 71.3572 491.816 69.1448 492.301 66.7287C492.776 64.3126 492.485 61.6248 490.954 59.7036C489.693 58.122 487.832 58.5198 486.262 57.2487C485.04 56.259 483.984 53.7265 483.247 52.3389C486.388 62.7892 488.763 73.8897 484.769 83.8646C482.006 90.7732 476.19 96.3913 469.211 98.9433C472.923 96.2846 476.549 93.4513 479.331 89.8417C482.307 85.9701 484.246 81.0797 483.654 76.2281C482.724 68.6111 468.61 44.5181 466.875 39.7829C467.825 44.4114 467.456 48.021 464.955 50.0101C464.306 43.2956 456.997 43.9068 453.013 41.2191C453.013 41.2191 449.93 23.7824 457.162 23.6757C460.651 23.6272 464.306 15.4183 467.476 13.9531C472.536 11.6146 475.638 13.206 481.25 13.3806C486.853 13.5456 492.233 15.9616 495.655 20.396C497.448 22.7151 498.108 20.8714 500.802 22.3172C503.361 23.6854 505.087 22.4143 507.985 22.5016C513.792 22.6568 519.424 25.7619 522.681 30.5649C525.938 35.3777 527.944 34.9313 526.655 42.3737C526.636 42.461 526.636 42.6357 526.655 42.8977C527.363 54.6191 525.55 66.3697 520.907 77.1596C519.472 80.4781 526.49 83.9032 526.48 88.0465C526.47 92.8593 518.726 97.2452 519.443 99.3023C521.498 109.209 533.043 107.007 530.319 123.589C530.097 124.938 533.896 127.898 533.47 129.518Z" fill="#2F2E41"/>
<path d="M462.753 99.1769C462.966 99.109 463.179 99.0314 463.392 98.944C463.121 99.1381 462.859 99.3225 462.588 99.5166L462.753 99.1769Z" fill="#2F2E41"/>
<path d="M498.708 17.4272C495.931 17.8402 493.111 13.2287 494.687 6.83366C498.123 12.0924 499.879 18.0123 500.155 24.515L498.304 25.0892L498.708 17.4272Z" fill="#800020"/>
<path d="M512.895 11.458C511 18.179 501.377 22.6771 499.678 20.3381L499.483 24.3461L498.293 22.8142C501.745 17.6769 506.449 13.736 512.895 11.458Z" fill="#800020"/>
<path d="M301.589 192.699C301.589 190.466 303.404 188.649 305.635 188.649H370.665C372.895 188.649 374.711 190.466 374.711 192.699C374.711 194.932 372.895 196.749 370.665 196.749H305.635C303.404 196.749 301.589 194.932 301.589 192.699Z" fill="#BDBDBD"/>
<path d="M301.589 219.868C301.589 217.635 303.404 215.818 305.635 215.818H370.665C372.895 215.818 374.711 217.635 374.711 219.868C374.711 222.101 372.895 223.918 370.665 223.918H305.635C303.404 223.918 301.589 222.101 301.589 219.868Z" fill="#BDBDBD"/>
<path d="M254.886 210.457C252.655 210.457 250.839 208.64 250.839 206.407C250.839 204.174 252.655 202.357 254.886 202.357H370.664C372.895 202.357 374.711 204.174 374.711 206.407C374.711 208.64 372.895 210.457 370.664 210.457H254.886Z" fill="#BDBDBD"/>
<path d="M246.278 171.695L238.3 167.912C241.572 172.483 244.392 179.622 245.901 185.303C248.457 180.011 252.577 173.536 256.655 169.669L248.224 171.84C253.419 146.352 272.961 128.054 295.339 128.054V126.113C271.964 126.113 251.583 145.178 246.278 171.695Z" fill="#3F3D56"/>
<path d="M282.997 210.531H232.59C230.452 210.531 228.712 208.79 228.712 206.65C228.712 204.51 230.452 202.768 232.59 202.768H282.997C285.135 202.768 286.874 204.51 286.874 206.65C286.874 208.79 285.135 210.531 282.997 210.531Z" fill="#FF6F00"/>
<path d="M297.719 131.153C299.062 122.871 293.442 115.067 285.168 113.723C276.894 112.379 269.098 118.004 267.755 126.286C266.413 134.569 272.032 142.372 280.306 143.716C288.58 145.06 296.376 139.436 297.719 131.153Z" fill="#3F3D56"/>
<path d="M200.341 18.7414C205.512 18.7414 209.703 14.546 209.703 9.37072C209.703 4.19542 205.512 0 200.341 0C195.171 0 190.98 4.19542 190.98 9.37072C190.98 14.546 195.171 18.7414 200.341 18.7414Z" fill="#BDBDBD"/>
<path d="M309.879 180.785C315.049 180.785 319.241 176.589 319.241 171.414C319.241 166.239 315.049 162.043 309.879 162.043C304.709 162.043 300.518 166.239 300.518 171.414C300.518 176.589 304.709 180.785 309.879 180.785Z" fill="#BDBDBD"/>
</g>
<defs>
<clipPath id="clip0_544_1019">
<rect width="536" height="357" fill="white"/>
</clipPath>
</defs>
</svg>
